<svg width="87" height="68" viewBox="0 0 87 68" fill="none" xmlns="http://www.w3.org/2000/svg">
<path d="M37.0628 0.280029V17.9116C37.0628 23.2664 36.0874 28.9803 34.1368 35.0534C32.2511 41.0612 29.4552 46.9058 25.7489 52.587C22.1076 58.203 17.6861 63.1007 12.4843 67.28L0 57.0929C4.09641 51.2157 7.64013 45.11 10.6312 38.7757C13.6872 32.376 15.2152 25.552 15.2152 18.3034V0.280029H37.0628ZM87 0.280029V17.9116C87 23.2664 86.0247 28.9803 84.074 35.0534C82.1883 41.0612 79.3924 46.9058 75.6861 52.587C72.0448 58.203 67.6233 63.1007 62.4215 67.28L49.9372 57.0929C54.0336 51.2157 57.5774 45.11 60.5684 38.7757C63.6244 32.376 65.1525 25.552 65.1525 18.3034V0.280029H87Z" fill="#EAEAEA"/>
</svg>
