<svg width="19" height="25" viewBox="0 0 19 25" fill="none" xmlns="http://www.w3.org/2000/svg">
<path d="M18.9643 12.4375C12.5815 10.2719 11.1916 8.44318 9.54811 0.0452569C9.54482 0.0320916 9.53846 0.0206288 9.52993 0.0125022C9.52139 0.0043756 9.51113 0 9.5006 0C9.49006 0 9.4798 0.0043756 9.47127 0.0125022C9.46274 0.0206288 9.45637 0.0320916 9.45308 0.0452569C7.80711 8.44318 6.41722 10.2719 0.0343974 12.4375C0.0243911 12.4418 0.0156786 12.4502 0.00950202 12.4614C0.00332543 12.4726 0 12.4861 0 12.5C0 12.5139 0.00332543 12.5274 0.00950202 12.5386C0.0156786 12.5498 0.0243911 12.5582 0.0343974 12.5625C6.41722 14.7281 7.80711 16.5568 9.45308 24.9547C9.45637 24.9679 9.46274 24.9794 9.47127 24.9875C9.4798 24.9956 9.49006 25 9.5006 25C9.51113 25 9.52139 24.9956 9.52993 24.9875C9.53846 24.9794 9.54482 24.9679 9.54811 24.9547C11.1941 16.5568 12.584 14.7281 18.9668 12.5625C18.9767 12.5579 18.9853 12.5492 18.9912 12.5377C18.9972 12.5263 19.0003 12.5127 19 12.4988C18.9997 12.4849 18.9961 12.4715 18.9897 12.4605C18.9833 12.4495 18.9744 12.4415 18.9643 12.4375ZM11.9683 12.5579C10.4784 13.2403 10.0388 15.0249 9.54061 17.0648C9.53779 17.0768 9.53215 17.0872 9.5245 17.0946C9.51685 17.102 9.5076 17.106 9.4981 17.106C9.4886 17.106 9.47934 17.102 9.4717 17.0946C9.46405 17.0872 9.4584 17.0768 9.45559 17.0648C8.95544 15.0249 8.51782 13.2403 7.02789 12.5579C7.01894 12.5535 7.01122 12.5456 7.00577 12.5352C7.00032 12.5249 6.99741 12.5126 6.99741 12.5C6.99741 12.4874 7.00032 12.4751 7.00577 12.4648C7.01122 12.4544 7.01894 12.4465 7.02789 12.4421C8.51782 11.7597 8.95744 9.9751 9.45559 7.93517C9.4584 7.92323 9.46405 7.91279 9.4717 7.90538C9.47934 7.89796 9.4886 7.89396 9.4981 7.89396C9.5076 7.89396 9.51685 7.89796 9.5245 7.90538C9.53215 7.91279 9.53779 7.92323 9.54061 7.93517C10.0408 9.9751 10.4784 11.7597 11.9683 12.4421C11.9773 12.4465 11.985 12.4544 11.9904 12.4648C11.9959 12.4751 11.9988 12.4874 11.9988 12.5C11.9988 12.5126 11.9959 12.5249 11.9904 12.5352C11.985 12.5456 11.9773 12.5535 11.9683 12.5579Z" fill="white"/>
</svg>
